<?xml version="1.0" encoding="UTF-8" standalone="no"?>
<!-- Created with Inkscape (http://www.inkscape.org/) -->

<svg
   width="48"
   height="48"
   viewBox="0 0 48 48"
   version="1.1"
   id="svg1"
   inkscape:version="1.3.2 (091e20e, 2023-11-25, custom)"
   sodipodi:docname="Иконка.svg"
   xml:space="preserve"
   xmlns:inkscape="http://www.inkscape.org/namespaces/inkscape"
   xmlns:sodipodi="http://sodipodi.sourceforge.net/DTD/sodipodi-0.dtd"
   xmlns="http://www.w3.org/2000/svg"
   xmlns:svg="http://www.w3.org/2000/svg"><sodipodi:namedview
     id="namedview1"
     pagecolor="#ffffff"
     bordercolor="#000000"
     borderopacity="0.25"
     inkscape:showpageshadow="2"
     inkscape:pageopacity="0.0"
     inkscape:pagecheckerboard="0"
     inkscape:deskcolor="#d1d1d1"
     inkscape:document-units="px"
     inkscape:zoom="12.625491"
     inkscape:cx="22.09815"
     inkscape:cy="23.880259"
     inkscape:window-width="1920"
     inkscape:window-height="1111"
     inkscape:window-x="-9"
     inkscape:window-y="-9"
     inkscape:window-maximized="1"
     inkscape:current-layer="layer1" /><defs
     id="defs1" /><g
     inkscape:label="Слой 1"
     inkscape:groupmode="layer"
     id="layer1"><ellipse
       style="fill:#2aff2a;stroke-width:0.910161"
       id="path1"
       cx="23.999065"
       cy="24.038668"
       rx="24.078268"
       ry="23.959463" /><ellipse
       style="fill:#000000"
       id="path2-7"
       cx="32.801521"
       cy="17.83165"
       rx="2.6929646"
       ry="6.7720137" /><ellipse
       style="fill:#000000"
       id="path2"
       cx="15.128124"
       cy="17.939896"
       rx="2.6929646"
       ry="6.7720137" /><path
       id="path4"
       d="m 38.810371,35.800585 c 10e-7,3.149541 -7.923493,9.425376 -14.375679,9.425376 -6.452185,0 -11.920329,-6.434245 -11.920329,-9.583786 1e-6,-3.149541 5.468144,6.177978 11.920329,6.177978 6.452185,-10e-7 14.375679,-9.169109 14.375679,-6.019568 z"
       sodipodi:nodetypes="sssss" /><g
       inkscape:label="Слой 1"
       id="layer1-5"
       transform="translate(-1.9009156,-0.15840902)"><ellipse
         style="fill:#2aff2a;stroke-width:0.910161"
         id="path1-4"
         cx="23.999065"
         cy="24.038668"
         rx="21.702124"
         ry="23.959463" /><ellipse
         style="fill:#000000"
         id="path2-7-7"
         cx="32.801521"
         cy="17.83165"
         rx="2.6929646"
         ry="6.7720137" /><ellipse
         style="fill:#000000"
         id="path2-5"
         cx="15.128124"
         cy="17.939896"
         rx="2.6929646"
         ry="6.7720137" /><path
         id="path4-3"
         d="m 38.810371,35.800585 c 10e-7,3.149541 -7.923493,9.425376 -14.375679,9.425376 -6.452185,0 -11.920329,-6.434245 -11.920329,-9.583786 1e-6,-3.149541 5.468144,6.177978 11.920329,6.177978 6.452185,-10e-7 14.375679,-9.169109 14.375679,-6.019568 z"
         sodipodi:nodetypes="sssss" /></g></g></svg>
